<svg aria-hidden="true" style="position:absolute;width:0;height:0;overflow:hidden" xmlns="http://www.w3.org/2000/svg">
  <defs>
    <symbol id="icon-camper-1" viewBox="0 0 32 32">
      <path d="M1.83 6.06h8.68c.08 0 .14-.03.2-.08l.83-.81c.24-.24.57-.37.9-.37h13.18c.61 0 1.18.3 1.52.8l1.58 2.3c.23.33.25.75.06 1.1s-.56.56-.97.56h-6.79v.67h3.48c.92 0 1.75.54 2.11 1.36l2.04 4.66 1.78.7A2.42 2.42 0 0 1 32 19.2v4.31c0 .65-.54 1.17-1.2 1.17h-2.07c-.24 1.43-1.52 2.52-3.05 2.52s-2.8-1.1-3.04-2.52H11.3c-.24 1.43-1.52 2.52-3.05 2.52s-2.8-1.1-3.04-2.52H1.06c-.58 0-1.06-.46-1.06-1.04V7.84c0-.98.82-1.78 1.83-1.78zm23.85 20.16c1.15 0 2.08-.91 2.08-2.03s-.93-2.03-2.08-2.03c-1.14 0-2.07.91-2.07 2.03s.93 2.03 2.07 2.03zm-4.66-2.52h1.62l.01-.08.01-.05.03-.11v-.03l.05-.13v-.04l.04-.1.02-.05a1.38 1.38 0 0 1 .06-.13l.03-.07.03-.06.04-.07a1.35 1.35 0 0 1 .07-.12c0-.02.02-.03.03-.05l.05-.07c0-.02.02-.03.03-.05l.05-.07.03-.04.07-.1h.02l.09-.11.03-.03.06-.07.04-.04.07-.06.04-.04.06-.05.05-.04.06-.05c.02 0 .04-.02.05-.03l.07-.05.05-.03.07-.05c.02 0 .03-.02.05-.03l.08-.04.04-.02.12-.06a3 3 0 0 1 .14-.07l.04-.01.1-.04.04-.01.09-.03.06-.02.08-.02.06-.02.08-.02h.06l.09-.02.06-.01.09-.01.05-.01h.1l.05-.01a2.51 2.51 0 0 1 .3 0h.05l.1.01h.06l.1.02h.05a1.16 1.16 0 0 1 .15.03l.08.02.06.02.08.02.06.02.09.02.05.02.09.04a3 3 0 0 1 .17.07h.01l.12.07.04.02.08.04.05.03.07.05.05.03.07.05a1.46 1.46 0 0 1 .11.08l.05.04.06.05.04.04.07.06a1.33 1.33 0 0 1 .13.14l.1.1v.02a3.46 3.46 0 0 1 .16.2l.04.05.04.07.03.05.04.07.03.05.04.07.03.06.03.07.03.05c0 .03.02.06.03.08l.02.05.03.1.01.04.04.13.01.03.03.11v.05l.02.08h2.08c.1 0 .18-.09.18-.19v-2.06h-.79v-.98h.8V19.2c0-.6-.37-1.12-.94-1.34l-1.89-.74h-7.15v6.58zm0-7.56h6.48l-1.81-4.16c-.2-.46-.67-.76-1.19-.76h-3.48v4.92zM8.25 26.22c1.15 0 2.08-.91 2.08-2.03a2.05 2.05 0 0 0-2.18-2.03c-.96.05-1.75.73-1.93 1.62l-.02.1a1.96 1.96 0 0 0-.03.3c0 1.13.94 2.04 2.08 2.04zm-7.24-5.75h.79v.98H1v2.2c0 .02.03.05.06.05h4.15l.01-.08.01-.05a2.03 2.03 0 0 1 .09-.31l.03-.1.02-.04.03-.08.03-.06.03-.07.03-.06.04-.07c0-.02.02-.03.03-.05l.04-.07a1.36 1.36 0 0 1 .1-.17l.06-.07.03-.04a3.3 3.3 0 0 1 .18-.21l.03-.03a2.15 2.15 0 0 1 .17-.17l.04-.03.06-.06.05-.03.06-.05.05-.04.07-.05c.02 0 .03-.02.05-.03l.07-.04.05-.03.08-.05.04-.02a2.12 2.12 0 0 1 .26-.12l.04-.02.1-.03.05-.02.08-.03.06-.02.08-.02.06-.02.08-.01.06-.02.09-.01a2.22 2.22 0 0 1 .15-.02h.06l.1-.01h.05a2.51 2.51 0 0 1 .3 0h.2l.1.02h.05a1.16 1.16 0 0 1 .15.04l.08.01.06.02.09.02.05.02.09.03a3.25 3.25 0 0 1 .14.05l.04.02a3 3 0 0 1 .13.05h.01l.12.07.04.02a3.33 3.33 0 0 1 .13.08l.07.04.05.03.07.05a1.46 1.46 0 0 1 .11.09c.02 0 .03.02.05.03l.06.06c.02 0 .03.02.04.03l.07.06.04.04.06.07a3.1 3.1 0 0 1 .12.13l.02.02.07.1.03.03.06.08.03.04.04.07.03.05.05.07c0 .02.02.04.03.05 0 .03.02.05.03.08l.03.05.03.07.03.06.03.08.02.05.03.1.02.03c0 .05.02.1.03.14l.01.02.03.12v.04l.02.08h8.72V9.07c0-.27.23-.49.5-.49h7.3s.05 0 .07-.04 0-.08 0-.09l-1.58-2.3a.82.82 0 0 0-.68-.36H12.45a.28.28 0 0 0-.2.08l-.83.8c-.24.25-.56.38-.9.38H1.83a.8.8 0 0 0-.82.8v12.62z"/>
      <path d="M3.88 9.84h6.17c.7 0 1.29.56 1.29 1.26v2.87c0 .7-.58 1.26-1.3 1.26H3.88c-.72 0-1.3-.56-1.3-1.26V11.1c0-.7.58-1.26 1.3-1.26zm-.29 4.13c0 .15.13.28.29.28h6.17c.15 0 .28-.13.28-.28V11.1a.28.28 0 0 0-.28-.28H3.87a.28.28 0 0 0-.28.28v2.87z"/>
    </symbol>
    <symbol id="icon-camper-2" viewBox="0 0 32 32">
      <path d="M1.83 6.06h8.68c.08 0 .14-.03.2-.08l.83-.81c.24-.24.57-.37.9-.37h13.18c.61 0 1.18.3 1.52.8l1.58 2.3c.23.33.25.75.06 1.1s-.56.56-.97.56h-6.79v.67h3.48c.92 0 1.75.54 2.11 1.36l2.04 4.66 1.78.7A2.42 2.42 0 0 1 32 19.2v4.31c0 .65-.54 1.17-1.2 1.17h-2.07c-.24 1.43-1.52 2.52-3.05 2.52s-2.8-1.1-3.04-2.52H11.3c-.24 1.43-1.52 2.52-3.05 2.52s-2.8-1.1-3.04-2.52H1.06c-.58 0-1.06-.46-1.06-1.04V7.84c0-.98.82-1.78 1.83-1.78zm23.85 20.16c1.15 0 2.08-.91 2.08-2.03s-.93-2.03-2.08-2.03c-1.14 0-2.07.91-2.07 2.03s.93 2.03 2.07 2.03zm-4.66-2.52h1.62l.01-.08.01-.05.03-.11v-.03l.05-.13v-.04l.04-.1.02-.05a1.38 1.38 0 0 1 .06-.13l.03-.07.03-.06.04-.07a1.35 1.35 0 0 1 .07-.12c0-.02.02-.03.03-.05l.05-.07c0-.02.02-.03.03-.05l.05-.07.03-.04.07-.1h.02l.09-.11.03-.03.06-.07.04-.04.07-.06.04-.04.06-.05.05-.04.06-.05c.02 0 .04-.02.05-.03l.07-.05.05-.03.07-.05c.02 0 .03-.02.05-.03l.08-.04.04-.02.12-.06a3 3 0 0 1 .14-.07l.04-.01.1-.04.04-.01.09-.03.06-.02.08-.02.06-.02.08-.02h.06l.09-.02.06-.01.09-.01.05-.01h.1l.05-.01a2.51 2.51 0 0 1 .3 0h.05l.1.01h.06l.1.02h.05a1.16 1.16 0 0 1 .15.03l.08.02.06.02.08.02.06.02.09.02.05.02.09.04a3 3 0 0 1 .17.07h.01l.12.07.04.02.08.04.05.03.07.05.05.03.07.05a1.46 1.46 0 0 1 .11.08l.05.04.06.05.04.04.07.06a1.33 1.33 0 0 1 .13.14l.1.1v.02a3.46 3.46 0 0 1 .16.2l.04.05.04.07.03.05.04.07.03.05.04.07.03.06.03.07.03.05c0 .03.02.06.03.08l.02.05.03.1.01.04.04.13.01.03.03.11v.05l.02.08h2.08c.1 0 .18-.09.18-.19v-2.06h-.79v-.98h.8V19.2c0-.6-.37-1.12-.94-1.34l-1.89-.74h-7.15v6.58zm0-7.56h6.48l-1.81-4.16c-.2-.46-.67-.76-1.19-.76h-3.48v4.92zM8.25 26.22c1.15 0 2.08-.91 2.08-2.03a2.05 2.05 0 0 0-2.18-2.03c-.96.05-1.75.73-1.93 1.62l-.02.1a1.96 1.96 0 0 0-.03.3c0 1.13.94 2.04 2.08 2.04zm-7.24-5.75h.79v.98H1v2.2c0 .02.03.05.06.05h4.15l.01-.08.01-.05a2.03 2.03 0 0 1 .09-.31l.03-.1.02-.04.03-.08.03-.06.03-.07.03-.06.04-.07c0-.02.02-.03.03-.05l.04-.07a1.36 1.36 0 0 1 .1-.17l.06-.07.03-.04a3.3 3.3 0 0 1 .18-.21l.03-.03a2.15 2.15 0 0 1 .17-.17l.04-.03.06-.06.05-.03.06-.05.05-.04.07-.05c.02 0 .03-.02.05-.03l.07-.04.05-.03.08-.05.04-.02a2.12 2.12 0 0 1 .26-.12l.04-.02.1-.03.05-.02.08-.03.06-.02.08-.02.06-.02.08-.01.06-.02.09-.01a2.22 2.22 0 0 1 .15-.02h.06l.1-.01h.05a2.51 2.51 0 0 1 .3 0h.2l.1.02h.05a1.16 1.16 0 0 1 .15.04l.08.01.06.02.09.02.05.02.09.03a3.25 3.25 0 0 1 .14.05l.04.02a3 3 0 0 1 .13.05h.01l.12.07.04.02a3.33 3.33 0 0 1 .13.08l.07.04.05.03.07.05a1.46 1.46 0 0 1 .11.09c.02 0 .03.02.05.03l.06.06c.02 0 .03.02.04.03l.07.06.04.04.06.07a3.1 3.1 0 0 1 .12.13l.02.02.07.1.03.03.06.08.03.04.04.07.03.05.05.07c0 .02.02.04.03.05 0 .03.02.05.03.08l.03.05.03.07.03.06.03.08.02.05.03.1.02.03c0 .05.02.1.03.14l.01.02.03.12v.04l.02.08h8.72V9.07c0-.27.23-.49.5-.49h7.3s.05 0 .07-.04 0-.08 0-.09l-1.58-2.3a.82.82 0 0 0-.68-.36H12.45a.28.28 0 0 0-.2.08l-.83.8c-.24.25-.56.38-.9.38H1.83a.8.8 0 0 0-.82.8v12.62z"/>
      <path d="M14.08 9.84h3.2c.64 0 1.16.5 1.16 1.14V21.5a.5.5 0 0 1-.5.5h-4.52a.5.5 0 0 1-.5-.5V10.98c0-.63.52-1.14 1.16-1.14zm-.16 11.18h3.51v-5.79h-3.5v5.79zm0-6.77h3.51v-3.27a.16.16 0 0 0-.16-.16h-3.19a.16.16 0 0 0-.16.16v3.27z"/>
    </symbol>
    <symbol id="icon-camper-3" viewBox="0 0 32 32">
      <path d="M1.83 6.06h8.68c.08 0 .14-.03.2-.08l.83-.81c.24-.24.57-.37.9-.37h13.18c.61 0 1.18.3 1.52.8l1.58 2.3c.23.33.25.75.06 1.1s-.56.56-.97.56h-6.79v.67h3.48c.92 0 1.75.54 2.11 1.36l2.04 4.66 1.78.7A2.42 2.42 0 0 1 32 19.2v4.31c0 .65-.54 1.17-1.2 1.17h-2.07c-.24 1.43-1.52 2.52-3.05 2.52s-2.8-1.1-3.04-2.52H11.3c-.24 1.43-1.52 2.52-3.05 2.52s-2.8-1.1-3.04-2.52H1.06c-.58 0-1.06-.46-1.06-1.04V7.84c0-.98.82-1.78 1.83-1.78zm23.85 20.16c1.15 0 2.08-.91 2.08-2.03s-.93-2.03-2.08-2.03c-1.14 0-2.07.91-2.07 2.03s.93 2.03 2.07 2.03zm-4.66-2.52h1.62l.01-.08.01-.05.03-.11v-.03l.05-.13v-.04l.04-.1.02-.05a1.38 1.38 0 0 1 .06-.13l.03-.07.03-.06.04-.07a1.35 1.35 0 0 1 .07-.12c0-.02.02-.03.03-.05l.05-.07c0-.02.02-.03.03-.05l.05-.07.03-.04.07-.1h.02l.09-.11.03-.03.06-.07.04-.04.07-.06.04-.04.06-.05.05-.04.06-.05c.02 0 .04-.02.05-.03l.07-.05.05-.03.07-.05c.02 0 .03-.02.05-.03l.08-.04.04-.02.12-.06a3 3 0 0 1 .14-.07l.04-.01.1-.04.04-.01.09-.03.06-.02.08-.02.06-.02.08-.02h.06l.09-.02.06-.01.09-.01.05-.01h.1l.05-.01a2.51 2.51 0 0 1 .3 0h.05l.1.01h.06l.1.02h.05a1.16 1.16 0 0 1 .15.03l.08.02.06.02.08.02.06.02.09.02.05.02.09.04a3 3 0 0 1 .17.07h.01l.12.07.04.02.08.04.05.03.07.05.05.03.07.05a1.46 1.46 0 0 1 .11.08l.05.04.06.05.04.04.07.06a1.33 1.33 0 0 1 .13.14l.1.1v.02a3.46 3.46 0 0 1 .16.2l.04.05.04.07.03.05.04.07.03.05.04.07.03.06.03.07.03.05c0 .03.02.06.03.08l.02.05.03.1.01.04.04.13.01.03.03.11v.05l.02.08h2.08c.1 0 .18-.09.18-.19v-2.06h-.79v-.98h.8V19.2c0-.6-.37-1.12-.94-1.34l-1.89-.74h-7.15v6.58zm0-7.56h6.48l-1.81-4.16c-.2-.46-.67-.76-1.19-.76h-3.48v4.92zM8.25 26.22c1.15 0 2.08-.91 2.08-2.03a2.05 2.05 0 0 0-2.18-2.03c-.96.05-1.75.73-1.93 1.62l-.02.1a1.96 1.96 0 0 0-.03.3c0 1.13.94 2.04 2.08 2.04zm-7.24-5.75h.79v.98H1v2.2c0 .02.03.05.06.05h4.15l.01-.08.01-.05a2.03 2.03 0 0 1 .09-.31l.03-.1.02-.04.03-.08.03-.06.03-.07.03-.06.04-.07c0-.02.02-.03.03-.05l.04-.07a1.36 1.36 0 0 1 .1-.17l.06-.07.03-.04a3.3 3.3 0 0 1 .18-.21l.03-.03a2.15 2.15 0 0 1 .17-.17l.04-.03.06-.06.05-.03.06-.05.05-.04.07-.05c.02 0 .03-.02.05-.03l.07-.04.05-.03.08-.05.04-.02a2.12 2.12 0 0 1 .26-.12l.04-.02.1-.03.05-.02.08-.03.06-.02.08-.02.06-.02.08-.01.06-.02.09-.01a2.22 2.22 0 0 1 .15-.02h.06l.1-.01h.05a2.51 2.51 0 0 1 .3 0h.2l.1.02h.05a1.16 1.16 0 0 1 .15.04l.08.01.06.02.09.02.05.02.09.03a3.25 3.25 0 0 1 .14.05l.04.02a3 3 0 0 1 .13.05h.01l.12.07.04.02a3.33 3.33 0 0 1 .13.08l.07.04.05.03.07.05a1.46 1.46 0 0 1 .11.09c.02 0 .03.02.05.03l.06.06c.02 0 .03.02.04.03l.07.06.04.04.06.07a3.1 3.1 0 0 1 .12.13l.02.02.07.1.03.03.06.08.03.04.04.07.03.05.05.07c0 .02.02.04.03.05 0 .03.02.05.03.08l.03.05.03.07.03.06.03.08.02.05.03.1.02.03c0 .05.02.1.03.14l.01.02.03.12v.04l.02.08h8.72V9.07c0-.27.23-.49.5-.49h7.3s.05 0 .07-.04 0-.08 0-.09l-1.58-2.3a.82.82 0 0 0-.68-.36H12.45a.28.28 0 0 0-.2.08l-.83.8c-.24.25-.56.38-.9.38H1.83a.8.8 0 0 0-.82.8v12.62z"/>
      <path d="M14.08 9.84h3.2c.64 0 1.16.5 1.16 1.14V21.5a.5.5 0 0 1-.5.5h-4.52a.5.5 0 0 1-.5-.5V10.98c0-.63.52-1.14 1.16-1.14zm-.16 11.18h3.51v-5.79h-3.5v5.79zm0-6.77h3.51v-3.27a.16.16 0 0 0-.16-.16h-3.19a.16.16 0 0 0-.16.16v3.27zM3.88 9.84h6.17c.7 0 1.29.56 1.29 1.26v2.87c0 .7-.58 1.26-1.3 1.26H3.88c-.72 0-1.3-.56-1.3-1.26V11.1c0-.7.58-1.26 1.3-1.26zm-.29 4.13c0 .15.13.28.28.28h6.17c.16 0 .29-.13.29-.28V11.1a.28.28 0 0 0-.29-.28H3.87a.28.28 0 0 0-.28.28v2.87z"/>
    </symbol>
    <symbol id="icon-redHeart" viewBox="0 0 32 32">
      <path fill="#e44848" style="fill:var(--color1, #e44848);stroke:var(--color1, #e44848)" stroke="#e44848" stroke-linejoin="round" stroke-linecap="round" stroke-width="3.07" d="M27.79 6.15a7.35 7.35 0 0 0-10.38 0l-1.4 1.41-1.42-1.41A7.33 7.33 0 1 0 4.2 16.52l11.8 11.79 11.78-11.79a7.35 7.35 0 0 0 0-10.37z"/>
    </symbol>
    <symbol id="icon-heart" viewBox="0 0 32 32" fill="none" stroke="#101828" >
      <path stroke-linejoin="round" stroke-linecap="round" stroke-width="3.07" d="M27.79 6.15a7.35 7.35 0 0 0-10.38 0l-1.4 1.41-1.42-1.41A7.33 7.33 0 1 0 4.2 16.52l11.8 11.79 11.78-11.79a7.35 7.35 0 0 0 0-10.37z"/>
    </symbol>
    <symbol id="icon-calendar" viewBox="0 0 32 32">
      <path stroke-linejoin="round" stroke-linecap="round" stroke-width="2.4" d="M25.33 5.33H6.67A2.67 2.67 0 0 0 4 8v18.67c0 1.47 1.2 2.66 2.67 2.66h18.66c1.48 0 2.67-1.19 2.67-2.66V8c0-1.47-1.2-2.67-2.67-2.67zM21.33 2.67V8M10.67 2.67V8M4 13.33h24"/>
    </symbol>
    <symbol id="icon-route" viewBox="0 0 32 32">
      <path d="M6.67 4a2.67 2.67 0 1 0 0 5.33 2.67 2.67 0 0 0 0-5.33zM1.33 6.67a5.33 5.33 0 1 1 10.67 0 5.33 5.33 0 0 1-10.67 0zM25.33 22.67a2.67 2.67 0 1 0 0 5.33 2.67 2.67 0 0 0 0-5.33zM20 25.33a5.33 5.33 0 1 1 10.67 0 5.33 5.33 0 0 1-10.67 0z"/>
      <path d="M13.33 6.67c0-.74.6-1.34 1.34-1.34h8.4c4.13 0 5.62 5.4 1.98 7.43l-15.47 8.8a1.3 1.3 0 0 0 .69 2.44h7.06a1.33 1.33 0 0 1 0 2.67h-7.06c-4.13 0-5.62-5.4-2-7.43l15.48-8.8A1.3 1.3 0 0 0 23.07 8h-8.4c-.74 0-1.34-.6-1.34-1.33z"/>
    </symbol>
    <symbol id="icon-map" viewBox="0 0 29 32" fill="none" >
      <path stroke-linejoin="round" stroke-linecap="round" stroke-width="2.4" d="M26.4 13.33c0 9.34-12 17.34-12 17.34s-12-8-12-17.34a12 12 0 1 1 24 0z"/>
      <path stroke-linejoin="round" stroke-linecap="round" stroke-width="2.4" d="M14.4 17.33a4 4 0 1 0 0-8 4 4 0 0 0 0 8z"/>
    </symbol>
    <symbol id="icon-microwave" viewBox="0 0 32 32">
      <path stroke-linejoin="round" stroke-linecap="round" stroke-width="2.24" d="M29.71 5.71H2.28c-.3 0-.59.12-.8.34s-.34.5-.34.8v18.3c0 .3.12.59.34.8s.5.34.8.34h27.43c.3 0 .6-.12.81-.34s.34-.5.34-.8V6.84c0-.3-.12-.59-.34-.8s-.5-.34-.8-.34z"/>
      <path stroke-linejoin="round" stroke-linecap="round" stroke-width="2.24" d="M25.14 11.43h1.15M25.14 16h1.15m-6.86-5.71H6.86c-.3 0-.6.12-.81.33s-.34.5-.34.8v9.15c0 .3.12.6.34.81s.5.34.8.34h12.58c.3 0 .6-.12.8-.34s.34-.5.34-.8v-9.15c0-.3-.12-.6-.33-.8s-.5-.34-.81-.34z"/>
    </symbol>
    <symbol id="icon-water" viewBox="0 0 32 32">
      <path stroke-miterlimit="10" stroke-width="2.4" d="M25 20c0 5.52-3.48 9-9 9s-9-3.48-9-9c0-5.93 6.45-13.93 8.43-16.24a.76.76 0 0 1 .57-.27.74.74 0 0 1 .57.27C18.55 6.07 25 14.07 25 20z"/>
      <path stroke-linejoin="round" stroke-linecap="round" stroke-width="2.4" d="M21.5 20.5A4.5 4.5 0 0 1 17 25"/>
    </symbol>
    <symbol id="icon-freezer" viewBox="0 0 32 32" fill="none">
      <path stroke-linejoin="round" stroke-linecap="round" stroke-width="2.08" d="M23.4 3H8.6a2 2 0 0 0-2 2v20.39c0 1.1.9 2 2 2h14.8a2 2 0 0 0 2-2V5a2 2 0 0 0-2-2z"/>
      <path stroke-linejoin="round" stroke-linecap="round" stroke-width="2.08" d="M6.6 13.13h18.8M10.3 10.57V6.53m0 12.91V15.4M8.43 27.39v.7a.91.91 0 0 0 .9.91h1.65a.91.91 0 0 0 .92-.91v-.7m8.2 0v.7a.91.91 0 0 0 .91.91h1.66a.91.91 0 0 0 .91-.91v-.7"/>
    </symbol>
    <symbol id="icon-bath" viewBox="0 0 32 32" fill="none">
      <path stroke-linejoin="round" stroke-linecap="round" stroke-width="3.2" d="m2.67 2.67 4.16 4.16m11.67 0A8.25 8.25 0 0 0 6.83 18.5M21 4.33 4.33 21m15 3.33v.02m-6.66-1.68v.01m5-5.01v.01m5-5.01v.01m-8.34 16.65v.02m10-10.02v.02m5-5.02v.02"/>
    </symbol>
    <symbol id="icon-paper" viewBox="0 0 32 32" stroke="none">
      <path d="M24 4c1.94 0 3.27 1.65 4.04 3.31a16.06 16.06 0 0 1 1.29 6.15v13.21a1.34 1.34 0 0 1-.86 1.24c-.16.07-.34.1-.52.09l-.17-.02-3.78-.63-3.78.63c-.16.03-.32.02-.48 0l-.16-.05-3.58-1.2-3.58 1.2a1.33 1.33 0 0 1-1.74-1.1l-.01-.16v-3.9C9.96 23.5 9.07 24 8 24c-1.94 0-3.27-1.65-4.04-3.31-.82-1.78-1.3-4.15-1.3-6.7s.48-4.9 1.3-6.68c.74-1.59 1.98-3.16 3.78-3.3L8 4h16zm0 2.67H11.7c.13.21.24.43.34.64.82 1.78 1.3 4.15 1.3 6.7v10.8l2.24-.74c.27-.1.57-.1.84 0l3.69 1.23 3.67-.61c.14-.03.3-.03.44 0l2.45.4V14c0-2.24-.43-4.21-1.05-5.57-.68-1.47-1.35-1.76-1.62-1.76zm-16 0c-.27 0-.94.29-1.62 1.76C5.76 9.8 5.33 11.75 5.33 14s.43 4.21 1.05 5.57c.68 1.47 1.35 1.76 1.62 1.76s.94-.29 1.62-1.76c.62-1.36 1.05-3.33 1.05-5.57s-.43-4.21-1.05-5.57C8.94 6.96 8.27 6.67 8 6.67zm0 4.66c.74 0 1.33 1.2 1.33 2.67s-.6 2.67-1.33 2.67c-.74 0-1.33-1.2-1.33-2.67s.6-2.67 1.33-2.67z"/>
    </symbol>
    <symbol id="icon-hob" viewBox="0 0 32 32">
      <path fill="none" stroke="#101828" style="stroke:var(--color2, #101828)" stroke-width="2.4" d="M12 5.87h16c.35 0 .7.14.94.39s.4.59.4.94v17.33c0 .36-.15.7-.4.95s-.59.39-.94.39H12m0-20H4c-.35 0-.7.14-.94.39s-.4.59-.4.94v17.33c0 .36.15.7.4.95s.59.39.94.39h8m0-20v20"/>
      <path fill="none" stroke="#101828" style="stroke:var(--color2, #101828)" stroke-linejoin="round" stroke-linecap="round" stroke-width="2.4" d="M7.33 10.53v2.67m17.34-3.33-8 11.33"/>
      <path d="M8.67 17.2a1.33 1.33 0 1 0-2.67 0 1.33 1.33 0 0 0 2.67 0zM8.67 21.2a1.33 1.33 0 1 0-2.67 0 1.33 1.33 0 0 0 2.67 0z"/>
    </symbol>
    <symbol id="icon-radio" viewBox="0 0 32 32" fill="none">
      <path stroke-width="2.31" d="M1.19 18.96c0-5.58 0-8.38 1.73-10.11C4.66 7.1 7.45 7.1 13.04 7.1h5.92c5.59 0 8.38 0 10.12 1.74 1.74 1.73 1.74 4.53 1.74 10.11s0 8.38-1.74 10.12c-1.74 1.74-4.53 1.74-10.12 1.74h-5.92c-5.59 0-8.38 0-10.12-1.74C1.2 27.34 1.2 24.55 1.2 18.96z"/>
      <path stroke-width="2.31" d="M5.63 14.52a2.96 2.96 0 0 1 2.96-2.96h14.82a2.96 2.96 0 1 1 0 5.92H8.59a2.96 2.96 0 0 1-2.96-2.96zm5.93 8.89a2.22 2.22 0 1 1-4.45 0 2.22 2.22 0 0 1 4.45 0z"/>
      <path stroke-linecap="round" stroke-width="2.31" d="M20.44 15.26v2.22m-2.96 5.93h7.4M7.86 7.1l12.6-5.92"/>
    </symbol>
    <symbol id="icon-cd" viewBox="0 0 32 32" fill="none">
      <path stroke-width="2.67" d="M16 29.33a13.33 13.33 0 1 0 0-26.66 13.33 13.33 0 0 0 0 26.66z"/>
      <path stroke-linecap="round" stroke-width="2.67" d="M7.85 16c0-4.5 3.65-8.15 8.15-8.15"/>
      <path stroke-width="2.67" d="M16 19.7a3.7 3.7 0 1 0 0-7.4 3.7 3.7 0 0 0 0 7.4z"/>
    </symbol>
    <symbol id="icon-hotel-air-conditioner" viewBox="0 0 32 32">
      <path stroke-linejoin="round" stroke-linecap="round" stroke-width="2.4" d="M28.57 1.14H3.43a2.29 2.29 0 0 0-2.29 2.29v11.43a2.29 2.29 0 0 0 2.29 2.28h25.14a2.29 2.29 0 0 0 2.29-2.28V3.43a2.28 2.28 0 0 0-2.29-2.29z"/>
      <path stroke-linejoin="round" stroke-linecap="round" stroke-width="2.4" d="M25.14 17.14v-4.57a2.28 2.28 0 0 0-2.28-2.28H9.14a2.29 2.29 0 0 0-2.28 2.28v4.57M5.7 28.57h.23a3.2 3.2 0 0 0 3.2-3.2v-2.51m17.15 5.71h-.23a3.2 3.2 0 0 1-3.2-3.2v-2.51m-6.86 8v-8"/>
    </symbol>
    <symbol id="icon-bed" viewBox="0 0 32 32" fill="transparent">
      <path stroke-linejoin="round" stroke-linecap="round" stroke-width="2.24" d="M3 26v-7a4.01 4.01 0 0 1 4-4h18a4.01 4.01 0 0 1 4 4v7m-5-11H6V8.5A2.51 2.51 0 0 1 8.5 6h15A2.51 2.51 0 0 1 26 8.5V15h-2z"/>
      <path stroke-linejoin="round" stroke-linecap="round" stroke-width="2.24" d="M3 26v-.5A1.5 1.5 0 0 1 4.5 24h23a1.5 1.5 0 0 1 1.5 1.5v.5M7 15v-1a2.01 2.01 0 0 1 2-2h5a2.01 2.01 0 0 1 2 2m0 0v1m0-1a2 2 0 0 1 2-2h5a2.01 2.01 0 0 1 2 2v1"/>
    </symbol>
    <symbol id="icon-kitchen" viewBox="0 0 32 32"  fill="transparent">
      <path stroke-linejoin="round" stroke-linecap="round" stroke-width="2.67" d="M26.37 20.44V2.67c-7.13 6.8-7.44 12.32-7.4 17.77h7.4zm0 0v8.9h-1.48v-4.45M10.07 4.15v25.18M5.63 4.15v4.44a4.44 4.44 0 1 0 8.89 0V4.15"/>
    </symbol>
    <symbol id="icon-petrol" viewBox="0 0 32 32" stroke="white">
      <path d="m27.95 8.05.02-.02-6.2-6.2L20 3.6l3.52 3.52a4.15 4.15 0 1 0 3.15 7.7v12.01a1.67 1.67 0 0 1-3.34 0v-7.5A3.33 3.33 0 0 0 20 16h-1.67V4.33A3.33 3.33 0 0 0 15 1H5a3.33 3.33 0 0 0-3.33 3.33V31h16.67V18.5h2.5v8.33a4.17 4.17 0 1 0 8.33 0V11c0-1.15-.47-2.2-1.22-2.95zM15 18.5v9.17H5V16h10v2.5zm0-5.83H5V4.33h10v8.34zm10 0a1.67 1.67 0 1 1 0-3.34 1.67 1.67 0 0 1 0 3.34z"/>
    </symbol>
    <symbol id="icon-ac" viewBox="0 0 32 32"  >
      <path d="M15.5 3.2c-1.5 0-2.95.51-4.11 1.45S9.43 6.89 9.14 8.34l-.12.57a.96.96 0 0 0 .13.76 1 1 0 0 0 .65.44c.13.02.26.02.4 0s.25-.08.36-.16a1 1 0 0 0 .42-.65l.12-.57c.22-1.08.84-2.03 1.74-2.68a4.56 4.56 0 0 1 6 .58 4.4 4.4 0 0 1-.16 6.1 4.54 4.54 0 0 1-3.18 1.3H1c-.26 0-.52.1-.7.29s-.3.43-.3.7c0 .26.1.5.3.7s.44.28.7.28h14.5c1.7-.04 3.3-.73 4.5-1.93a6.3 6.3 0 0 0 0-8.94 6.55 6.55 0 0 0-4.5-1.93zM27 12.06c-1.33 0-2.6.52-3.54 1.44S22 15.68 22 16.98c0 .27.1.52.3.7s.43.29.7.29.52-.1.7-.29c.2-.18.3-.43.3-.7a2.92 2.92 0 0 1 1.85-2.72 3.04 3.04 0 0 1 3.27.64A2.94 2.94 0 0 1 27 19.94H1c-.27 0-.52.1-.7.29s-.3.43-.3.7a1 1 0 0 0 1 .98h19.5c.66 0 1.3.26 1.77.72a2.43 2.43 0 0 1-.01 3.48 2.55 2.55 0 0 1-3.4.13c-.46-.38-.77-.9-.87-1.48v-.06a.97.97 0 0 0-.4-.66 1.02 1.02 0 0 0-1.13-.04 1 1 0 0 0-.45.63.98.98 0 0 0 0 .4l.01.05c.18 1.04.73 1.99 1.54 2.67a4.56 4.56 0 0 0 6.11-.25 4.4 4.4 0 0 0 .57-5.6H27a4.93 4.93 0 0 0 5-4.92c0-1.3-.53-2.55-1.47-3.48A5.04 5.04 0 0 0 27 12.06z"/>
      <path d="m15.5 3.2.2-8h-.2v8zM9.14 8.34 1.3 6.74v.02l7.84 1.58zm-.12.57 7.78 1.87.03-.14.03-.14L9.02 8.9zm1.96.4L3.14 7.68l-.03.14-.02.15 7.89 1.32zm.12-.58zm8.9.87h8v-.02l-8 .02zm-4.5 4.43v8-8zM0 15.02zm15.5.98v8h.2l-.2-8zm8.5.98zM0 20.93zm20.5.99.02-8h-.02v8zm-.01 4.92.02-8h-.03l.01 8zm-2.5-2.07-7.88 1.33v.03L18 24.76zm0-.06-7.93 1.1.02.11.02.13 7.89-1.34zm-1.98.32 7.9-1.33-.03-.12-.02-.12L16 25.02zm.01.06-7.88 1.34v.01l7.88-1.35zm4.47 3.72v-8 8zM25 24.37l8 .01v-.01h-8zm-.76-2.46v-8H9.13l8.5 12.5 6.61-4.5zM15.5-4.8c-3.31 0-6.54 1.13-9.14 3.22l10.05 12.46c-.27.21-.59.32-.9.32v-16zM6.36-1.58C3.76.52 1.96 3.45 1.3 6.74l15.68 3.2c-.08.39-.3.71-.57.93L6.36-1.58zM1.3 6.76l-.11.57 15.68 3.17.12-.58L1.29 6.76zm-.05.29a8.97 8.97 0 0 0-.12 3.63L16.9 7.94c.16.94.13 1.9-.1 2.84L1.25 7.05zm-.11 3.63c.2 1.2.66 2.35 1.32 3.36l13.4-8.74c.52.8.87 1.7 1.04 2.64L1.13 10.68zm1.32 3.36a8.98 8.98 0 0 0 2.52 2.56L13.89 3.3a7 7 0 0 1 1.96 2l-13.4 8.73zm2.52 2.55c1 .67 2.11 1.13 3.28 1.37l3.1-15.7a7 7 0 0 1 2.54 1.05L4.97 16.6zm3.28 1.37c1.17.23 2.37.22 3.54-.02L8.6 2.28a7 7 0 0 1 2.75-.01l-3.09 15.7zm3.54-.02a9 9 0 0 0 3.28-1.38L6.06 3.34A6.98 6.98 0 0 1 8.6 2.26l3.2 15.68zm3.28-1.38c.99-.67 1.84-1.55 2.5-2.57L4.1 5.34a7.01 7.01 0 0 1 1.95-2l9 13.22zm2.5-2.57a9 9 0 0 0 1.3-3.37L3.1 7.98c.16-.94.5-1.84 1.02-2.64L17.57 14zm1.25-3.08.11-.57L3.26 7.11l-.12.58 15.68 3.22zm.11-.57c-.18.9-.7 1.67-1.4 2.18L8.14-.43a12.41 12.41 0 0 0-4.87 7.54l15.67 3.23zm-1.4 2.18c-.69.5-1.53.73-2.36.65l1.56-15.93c-3.05-.3-6.1.53-8.6 2.34l9.4 12.94zm-2.36.65a3.48 3.48 0 0 1-2.22-1.11L24.72 1.2a12.52 12.52 0 0 0-8-3.97l-1.55 15.93zm-2.22-1.11A3.61 3.61 0 0 1 12 9.62l16-.04c0-3.12-1.19-6.1-3.29-8.37L12.95 12.06zM12 9.6c0-.99.4-1.9 1.07-2.57l11.23 11.4A12.4 12.4 0 0 0 28 9.6H12zm1.07-2.57c.66-.65 1.54-1 2.43-1v16c3.28 0 6.44-1.28 8.8-3.6L13.07 7.03zm2.43-1H1v16h14.5v-16zM1 6.03a9 9 0 0 0-6.32 2.59l11.23 11.4A7 7 0 0 1 1 22.03v-16zm-6.32 2.59A8.98 8.98 0 0 0-8 15.02H8c0 1.9-.77 3.7-2.1 5L-5.31 8.62zM-8 15.02c0 2.42.98 4.72 2.68 6.4l11.23-11.4a7.02 7.02 0 0 1 2.09 5H-8zm2.68 6.4A9 9 0 0 0 1 24V8a7 7 0 0 1 4.9 2.01l-11.22 11.4zM1 24h14.5V8H1v16zm14.7 0a14.55 14.55 0 0 0 9.97-4.3L14.31 8.44c.28-.28.64-.43 1-.44l.38 16zm9.98-4.3a14.35 14.35 0 0 0 4.16-10.1h-16c0-.46.19-.87.47-1.16L25.68 19.7zm4.16-10.1c0-3.8-1.5-7.42-4.16-10.1L14.31 10.76c-.28-.29-.47-.7-.47-1.16h16zM25.68-.5a14.55 14.55 0 0 0-9.98-4.3l-.4 16c-.35-.01-.7-.16-.99-.44L25.68-.5zM27 4.06c-3.4 0-6.7 1.33-9.15 3.74l11.23 11.4c-.57.57-1.32.86-2.08.86v-16zM17.85 7.8A12.89 12.89 0 0 0 14 17h16c0 .85-.35 1.65-.92 2.21L17.85 7.8zM14 16.98c0 2.43.98 4.73 2.68 6.4l11.23-11.4a7.02 7.02 0 0 1 2.09 5H14zm2.68 6.4A9 9 0 0 0 23 25.97v-16a7 7 0 0 1 4.9 2.01l-11.22 11.4zM23 25.97a9 9 0 0 0 6.32-2.59l-11.23-11.4A7 7 0 0 1 23 9.97v16zm6.32-2.59a8.98 8.98 0 0 0 2.68-6.4H16c0-1.9.77-3.7 2.1-5l11.22 11.4zm2.68-6.4c0 1.03-.31 2.02-.88 2.86L17.9 10.85A10.92 10.92 0 0 0 16 16.98h16zm-.88 2.86a5 5 0 0 1-2.25 1.82L22.83 6.85c-2 .81-3.72 2.2-4.94 4l13.24 8.99zm-2.25 1.82c-.9.37-1.88.46-2.82.28l3.07-15.7c-2.1-.42-4.3-.2-6.29.6l6.04 14.82zm-2.82.28a4.98 4.98 0 0 1-2.54-1.34L34.73 9.2a11.02 11.02 0 0 0-5.6-2.96l-3.08 15.7zM23.5 20.6c-.71-.7-1.2-1.6-1.41-2.6l15.68-3.18c-.43-2.14-1.5-4.1-3.05-5.62L23.51 20.6zM22.1 18c-.21-1.01-.1-2.05.29-2.99l14.75 6.2c.84-2.01 1.07-4.24.63-6.39L22.1 18zM22.4 15a5.04 5.04 0 0 1 1.87-2.25l8.8 13.36c1.8-1.18 3.23-2.89 4.08-4.9l-14.75-6.2zm1.87-2.25a4.97 4.97 0 0 1 2.73-.82v16c2.15 0 4.26-.63 6.06-1.82l-8.79-13.36zm2.73-.82H1v16h26v-16zm-26 0a9 9 0 0 0-6.32 2.59l11.23 11.4a7 7 0 0 1-4.91 2v-16zm-6.32 2.59A8.98 8.98 0 0 0-8 20.93H8c0 1.9-.77 3.7-2.1 5l-11.22-11.4zM-8 20.93c0 2.42.98 4.71 2.68 6.39l11.23-11.4a7.02 7.02 0 0 1 2.09 5H-8zm2.68 6.39A9 9 0 0 0 1 29.91v-16a7 7 0 0 1 4.9 2L-5.31 27.33zM1 29.91h19.5v-16H1v16zm19.48 0c-1.41 0-2.8-.56-3.84-1.59L27.9 16.94a10.52 10.52 0 0 0-7.38-3.03l-.03 16zm-3.84-1.59A5.56 5.56 0 0 1 15 24.36l16 .03c.01-2.82-1.12-5.5-3.1-7.45L16.64 28.32zM15 24.36c0-1.51.62-2.93 1.67-3.96l11.2 11.43A10.44 10.44 0 0 0 31 24.39l-16-.03zm1.67-3.96a5.48 5.48 0 0 1 3.85-1.57l-.04 16c2.75 0 5.4-1.06 7.39-3L16.66 20.4zm3.82-1.57c1.26 0 2.5.44 3.49 1.26l-10.22 12.3c1.9 1.59 4.3 2.44 6.75 2.44l-.02-16zm3.49 1.26c1 .83 1.68 2 1.9 3.3l-15.76 2.73c.43 2.47 1.73 4.7 3.64 6.28l10.22-12.31zm1.91 3.33v-.06L10.1 26.04v.05l15.78-2.67zm.03.19a8.98 8.98 0 0 0-1.2-3.4l-13.7 8.25a7.03 7.03 0 0 1-.95-2.67l15.85-2.18zm-1.2-3.4a9 9 0 0 0-2.42-2.64L12.9 30.5A7.02 7.02 0 0 1 11 28.45l13.71-8.24zm-2.42-2.64a9.03 9.03 0 0 0-3.22-1.48l-3.68 15.57a7 7 0 0 1-2.5-1.15l9.4-12.94zm-3.22-1.48a9.02 9.02 0 0 0-3.53-.12l2.58 15.79c-.9.14-1.83.11-2.73-.1l3.68-15.57zm-3.53-.12c-1.17.19-2.3.61-3.32 1.24L20.7 30.8a7 7 0 0 1-2.58.96l-2.58-15.79zm-3.32 1.24a9 9 0 0 0-2.6 2.46l13.1 9.2a7.02 7.02 0 0 1-2.02 1.92L12.22 17.2zm-2.6 2.46a8.96 8.96 0 0 0-1.43 3.3l15.65 3.32c-.2.93-.58 1.81-1.12 2.58l-13.1-9.2zm-1.43 3.3a8.97 8.97 0 0 0-.02 3.63l15.69-3.15c.19.94.18 1.9-.02 2.84L8.2 22.98zm-.06 3.39v.06l15.78-2.67v-.06L8.12 26.36zm0 .07c.51 2.94 2.05 5.58 4.32 7.47l10.24-12.3a3.55 3.55 0 0 1 1.22 2.13l-15.77 2.7zm4.32 7.47a12.57 12.57 0 0 0 8.04 2.9v-16c.79 0 1.56.27 2.2.8L12.44 33.9zm8.04 2.9c3.27 0 6.44-1.28 8.8-3.59L18.06 21.8c.66-.66 1.54-1 2.42-1v16zm8.8-3.59A12.4 12.4 0 0 0 33 24.38l-16-.03c0-.98.4-1.9 1.07-2.55L29.28 33.2zM33 24.37c0-2.58-.8-4.98-2.14-6.96l-13.23 9a3.64 3.64 0 0 1-.63-2.04h16zm-8.76 5.54H27v-16h-2.76v16zm2.76 0c3.4 0 6.7-1.33 9.15-3.74l-11.23-11.4A2.96 2.96 0 0 1 27 13.9v16zm9.15-3.74A12.89 12.89 0 0 0 40 16.98H24c0-.85.35-1.65.92-2.21l11.23 11.4zM40 16.98c0-3.46-1.4-6.76-3.85-9.18L24.92 19.2A3.12 3.12 0 0 1 24 17h16zM36.15 7.8A13.04 13.04 0 0 0 27 4.06v16c-.76 0-1.5-.3-2.08-.86L36.15 7.8z"/>
    </symbol>

    <symbol id="icon-transmission" viewBox="0 0 32 32"  fill="transparent">
      <path stroke-linejoin="round" stroke-linecap="round" stroke-width="2.67" d="M24.3 14.52h2.22a2.22 2.22 0 0 0 0-4.44H24.3v7.4m0 5.93v5.92h1.48a2.96 2.96 0 1 0 0-5.92H24.3zM3.56 5.63a2.96 2.96 0 1 0 5.92 0 2.96 2.96 0 0 0-5.92 0z"/>
      <path stroke-linejoin="round" stroke-linecap="round" stroke-width="2.67" d="M6.52 8.6v4.44A1.48 1.48 0 0 0 8 14.52h4.44m0 0v10.37a1.48 1.48 0 0 0 1.49 1.48h4.44m-5.93-11.85h5.93"/>
    </symbol>
    <symbol id="icon-adults" viewBox="0 0 32 32" stroke="none">
      <path d="M9.07 24.13h-4.4c-.27 0-.4-.13-.54-.26s-.26-.4-.13-.67c.8-2.27 2.8-3.6 5.07-3.6 2.8 0 5.06-2.4 5.06-5.2s-2.26-5.47-5.06-5.47S4 11.33 4 14.26c0 1.34.53 2.67 1.33 3.6a8.4 8.4 0 0 0-3.86 4.4c-.27.94-.14 2.14.53 3.07s1.6 1.47 2.67 1.47h4.4c.8 0 1.33-.53 1.33-1.33s-.53-1.34-1.33-1.34zm-2.4-9.86c0-1.47 1.06-2.54 2.4-2.54s2.4 1.2 2.4 2.54c0 1.46-1.07 2.53-2.4 2.53s-2.4-1.2-2.4-2.53z"/>
      <path d="M30.53 21.47A10 10 0 0 0 25.6 16a5.92 5.92 0 0 0 1.87-4.53C27.47 8 24.8 5.2 21.6 5.2s-5.87 2.8-5.87 6.27c0 1.73.67 3.33 1.87 4.53a9.99 9.99 0 0 0-4.93 5.47c-.67 1.2-.4 2.53.26 3.6s1.87 1.6 3.07 1.6h11.07c1.2 0 2.4-.67 3.07-1.6.8-1.07.93-2.4.4-3.6zM18.27 11.6c0-2 1.46-3.6 3.2-3.6s3.2 1.6 3.2 3.6-1.47 3.6-3.2 3.6c-1.74 0-3.2-1.73-3.2-3.6zm9.6 12c-.14.13-.4.53-.8.53H16c-.53 0-.8-.4-.8-.53-.13-.13-.4-.67-.13-1.2 1.06-2.8 3.73-4.67 6.53-4.67s5.47 1.87 6.53 4.67c.14.53-.13 1.07-.26 1.2z"/>
    </symbol>
    <symbol id="icon-star" viewBox="0 0 34 32">
      <path fill="#ffc531" style="fill: var(--color1, #ffc531); stroke: var(--color1, #ffc531)" stroke="#ffc531" stroke-linejoin="miter" stroke-linecap="butt" stroke-miterlimit="4" stroke-width="2.56" d="M13.227 10.020l3.84-7.277 3.84 7.277c0.34 0.644 0.959 1.093 1.675 1.217l8.108 1.403-5.735 5.9c-0.507 0.522-0.744 1.249-0.64 1.97l1.171 8.144-7.384-3.631c-0.653-0.321-1.418-0.321-2.071 0l-7.384 3.631 1.171-8.144c0.104-0.72-0.133-1.448-0.64-1.97l-5.735-5.9 8.108-1.403c0.717-0.124 1.336-0.574 1.675-1.217z"></path>
    </symbol>
    <symbol id="icon-close" viewBox="0 0 32 32">
      <path stroke-linejoin="round" stroke-linecap="round" stroke-miterlimit="4" stroke-width="3" d="M24 8l-16 16"></path>
      <path stroke-linejoin="round" stroke-linecap="round" stroke-miterlimit="4" stroke-width="3" d="M8 8l16 16"></path>
    </symbol> 
    <symbol id="icon-tv" viewBox="0 0 28 32" fill="none">
      <path stroke-linejoin="round" stroke-linecap="round" stroke-miterlimit="4" stroke-width="1.92" d="M22.4 26.667h-17.067c-2.364 0-4.267-1.903-4.267-4.267v-10.667c0-2.364 1.903-4.267 4.267-4.267h17.067c2.364 0 4.267 1.903 4.267 4.267v10.667c0 2.364-1.903 4.267-4.267 4.267z"></path>
      <path stroke-linejoin="round" stroke-linecap="round" stroke-miterlimit="4" stroke-width="1.92" d="M9.6 30.933h8.533"></path>
      <path stroke-linejoin="round" stroke-linecap="round" stroke-miterlimit="4" stroke-width="1.92" d="M13.867 7.467l6.4-6.4"></path>
      <path stroke-linejoin="round" stroke-linecap="round" stroke-miterlimit="4" stroke-width="1.92" d="M13.867 7.467l-6.4-6.4"></path>
    </symbol>
    <symbol id="icon-shower" viewBox="0 0 32 32" fill="none">
       <path stroke-linejoin="round" stroke-linecap="round" stroke-miterlimit="4" stroke-width="2.6667" d="M1.778 1.778l4.444 4.444M18.667 6.222c-1.656-1.623-3.885-2.527-6.204-2.515s-4.539 0.938-6.178 2.577c-1.639 1.639-2.566 3.86-2.577 6.178s0.892 4.548 2.515 6.204M21.333 3.556l-17.778 17.778M19.555 24.889v0.018M12.444 23.111v0.018M17.778 17.778v0.018M23.111 12.444v0.018M14.222 30.222v0.018M24.889 19.556v0.018M30.222 14.222v0.018"></path>
    </symbol>
    <symbol id="icon-gas" viewBox="0 0 26 32">
       <path d="M23.849 14.578c-0.433-0.533-0.96-0.996-1.449-1.458-1.261-1.067-2.691-1.831-3.896-2.951-2.804-2.596-3.425-6.88-1.637-10.169-1.788 0.409-3.35 1.333-4.686 2.347-4.874 3.698-6.794 10.223-4.498 15.823 0.075 0.178 0.151 0.356 0.151 0.587 0 0.391-0.282 0.747-0.659 0.889-0.433 0.178-0.885 0.071-1.242-0.213-0.107-0.084-0.197-0.187-0.263-0.302-2.127-2.542-2.465-6.187-1.035-9.102-3.143 2.418-4.856 6.507-4.611 10.365 0.113 0.889 0.226 1.778 0.546 2.667 0.263 1.067 0.772 2.133 1.336 3.076 2.033 3.076 5.552 5.28 9.335 5.725 4.027 0.48 8.337-0.213 11.424-2.844 3.444-2.951 4.648-7.68 2.879-11.734l-0.245-0.462c-0.395-0.818-1.449-2.24-1.449-2.24zM17.902 25.778c-0.527 0.427-1.393 0.889-2.070 1.067-2.108 0.711-4.216-0.284-5.458-1.458 2.24-0.498 3.576-2.062 3.971-3.645 0.32-1.422-0.282-2.596-0.527-3.965-0.226-1.316-0.188-2.436 0.32-3.662 0.358 0.676 0.734 1.351 1.186 1.885 1.449 1.778 3.726 2.56 4.216 4.978 0.075 0.249 0.113 0.498 0.113 0.764 0.056 1.458-0.621 3.058-1.75 4.036z"></path>
    </symbol>
    <symbol id="icon-white-star" viewBox="0 0 34 32">
       <path fill="#f2f4f7" style="fill: var(--color1, #f2f4f7); stroke: var(--color1, #f2f4f7)" stroke="#f2f4f7" stroke-linejoin="miter" stroke-linecap="butt" stroke-miterlimit="4" stroke-width="2.56" d="M13.227 10.020l3.84-7.277 3.84 7.277c0.34 0.644 0.959 1.093 1.675 1.217l8.108 1.403-5.735 5.9c-0.507 0.522-0.744 1.249-0.64 1.97l1.171 8.144-7.384-3.631c-0.653-0.321-1.418-0.321-2.071 0l-7.384 3.631 1.171-8.144c0.104-0.72-0.133-1.448-0.64-1.97l-5.735-5.9 8.108-1.403c0.717-0.124 1.336-0.574 1.675-1.217z"></path>
    </symbol>
  </defs>
</svg>